<svg version="1.1" id="Layer_1" xmlns="http://www.w3.org/2000/svg" xmlns:xlink="http://www.w3.org/1999/xlink" x="0px" y="0px"
	 width="100%" viewBox="0 0 1000 1000" enable-background="new 0 0 1000 1000" xml:space="preserve">
<path fill="#FFFFFF" opacity="1.000000" stroke="none" 
	d="
M631.000000,1001.000000 
	C420.666656,1001.000000 210.833328,1001.000000 1.000000,1001.000000 
	C1.000000,667.666687 1.000000,334.333344 1.000000,1.000000 
	C334.333344,1.000000 667.666687,1.000000 1001.000000,1.000000 
	C1001.000000,334.333344 1001.000000,667.666687 1001.000000,1001.000000 
	C877.833313,1001.000000 754.666687,1001.000000 631.000000,1001.000000 
M230.990585,734.018494 
	C230.990585,734.018494 230.824432,734.229858 231.122650,734.531616 
	C231.122650,734.531616 231.541397,734.599976 231.541397,734.599976 
	C231.541397,734.599976 231.947922,734.478394 232.804138,734.793091 
	C235.534561,734.806641 238.264969,734.820251 241.871384,735.042236 
	C248.935913,735.115845 256.000427,735.189453 263.825226,735.494446 
	C264.880981,735.553589 265.936707,735.612793 267.496826,735.865967 
	C267.666809,735.806335 267.836792,735.746765 268.847717,735.825378 
	C270.550812,735.799683 272.253876,735.773987 274.836090,736.009277 
	C282.242737,736.089294 289.649353,736.169373 297.937683,736.482117 
	C301.295197,736.576599 304.652710,736.671021 308.884399,737.012451 
	C317.921997,737.234131 326.959595,737.455750 336.844147,737.818787 
	C338.561493,737.811401 340.278870,737.804016 342.873260,738.041809 
	C349.601196,738.114685 356.329163,738.187500 363.950256,738.478577 
	C367.965088,738.594421 371.979889,738.710266 376.869995,739.039307 
	C384.934937,739.195496 392.999908,739.351624 401.904694,739.787903 
	C404.270172,739.774170 406.635681,739.760437 409.876160,740.000854 
	C418.216187,740.157715 426.556183,740.314636 435.748535,740.789124 
	C438.168488,740.777405 440.588440,740.765686 443.882843,741.002686 
	C452.939514,741.228394 461.996185,741.454102 471.890381,741.826172 
	C473.591278,741.812256 475.292206,741.798340 477.873383,742.018677 
	C484.272522,742.097107 490.671692,742.175537 497.843658,742.442078 
	C500.214630,742.514893 502.585632,742.587708 505.499664,742.837036 
	C505.681091,742.779419 505.862488,742.721802 506.857971,742.817505 
	C508.238403,742.806885 509.618866,742.796265 511.873810,743.030640 
	C517.262146,743.062195 522.650452,743.093811 528.604004,743.345337 
	C528.791809,743.270508 528.979675,743.195740 529.886841,743.240234 
	C530.127380,743.205261 530.367859,743.170349 530.719482,743.212891 
	C530.719482,743.212891 530.994385,743.132996 530.994385,743.132996 
	C530.994385,743.132996 530.707214,743.196350 531.718201,743.105408 
	C551.285034,740.218018 570.852539,737.334473 590.418640,734.442383 
	C625.264038,729.291870 660.113281,724.167053 694.951904,718.971191 
	C716.977173,715.686279 738.986084,712.292114 761.871033,709.042725 
	C766.575623,708.297852 771.280273,707.552979 776.759399,706.817444 
	C777.494751,706.617676 778.230103,706.417847 779.731567,706.356628 
	C783.144165,705.819763 786.556824,705.282959 790.662659,704.775452 
	C791.096497,704.628113 791.530334,704.480713 792.737305,704.494690 
	C796.153381,703.930237 799.569397,703.365784 803.712463,702.807556 
	C804.175110,702.678467 804.637695,702.549438 805.874451,702.580383 
	C813.912598,701.318420 821.950806,700.056396 830.718384,698.823364 
	C831.181274,698.690186 831.644226,698.557007 832.879761,698.582153 
	C840.916016,697.321899 848.952209,696.061646 857.664795,694.828796 
	C858.094971,694.714722 858.525208,694.600708 859.765625,694.542358 
	C869.742676,693.072083 879.719727,691.601746 889.696777,690.131470 
	C889.624512,689.500793 889.552185,688.870178 889.479919,688.239563 
	C875.331177,689.247681 861.182373,690.255798 846.246521,691.160339 
	C845.467957,691.260437 844.689392,691.360596 843.050171,691.300598 
	C834.046509,691.971619 825.042908,692.642639 815.304871,693.202209 
	C814.833923,693.332764 814.363037,693.463318 812.997070,693.345337 
	C811.454834,693.236572 809.912598,693.127808 808.682251,692.249695 
	C808.831726,691.600159 808.958008,690.944214 809.133728,690.301880 
	C834.644348,597.031189 860.163635,503.762848 885.669067,410.490723 
	C892.287292,386.288361 899.058655,362.125214 905.363831,337.841248 
	C907.965149,327.822693 905.746094,322.659241 896.667053,320.056885 
	C875.273621,313.924866 854.033691,307.258179 832.722412,300.838470 
	C826.138733,298.855194 824.996216,299.507202 823.215027,306.145844 
	C807.458435,364.872559 791.715332,423.602905 775.962402,482.330627 
	C771.565918,498.721130 767.149719,515.106323 762.503540,532.382690 
	C761.838074,530.332092 761.395691,529.251709 761.136353,528.129089 
	C750.737427,483.108582 740.359863,438.083191 729.969177,393.060852 
	C720.290710,351.124481 710.614929,309.187500 700.892761,267.261261 
	C699.966553,263.266998 698.359192,259.860138 693.788940,258.497650 
	C671.021301,251.709976 648.285217,244.814682 625.583008,237.811432 
	C621.446594,236.535431 619.141968,238.188370 618.854858,241.880768 
	C618.513611,246.269516 618.530701,250.876984 619.482300,255.146805 
	C633.907104,319.870605 648.510986,384.554535 663.073059,449.247772 
	C678.549622,518.003906 694.046997,586.755371 709.486450,655.519775 
	C712.797546,670.266968 715.899353,685.061157 718.148315,699.905212 
	C705.534485,700.737183 692.919434,701.551392 680.307068,702.404358 
	C643.140686,704.917969 605.973022,707.413513 568.810852,709.987793 
	C555.547424,710.906677 542.298096,712.030823 528.120300,712.859375 
	C522.820496,712.916504 517.520630,712.973694 512.516296,712.442200 
	C517.680481,708.985107 522.844604,705.528076 528.674255,701.909180 
	C541.666443,692.095154 552.575928,680.272644 561.653809,666.828735 
	C589.998474,624.851501 602.307251,577.537415 607.802979,527.065979 
	C607.904846,524.707764 608.006714,522.349548 608.435608,519.300598 
	C608.542114,517.521423 608.648682,515.742310 608.982239,513.100037 
	C609.200684,508.079834 609.419189,503.059631 609.814331,497.148865 
	C609.808105,494.428467 609.801941,491.708038 609.993652,488.069153 
	C610.002441,407.049469 610.012695,326.029755 610.007080,245.010071 
	C610.006958,243.690735 609.813110,242.371384 609.792175,240.313324 
	C609.088928,234.456696 605.729675,231.546997 600.050049,229.910065 
	C580.579346,224.298340 561.235718,218.245560 541.848206,212.345734 
	C529.609985,208.621506 528.172913,209.688385 528.157471,222.611954 
	C528.062622,302.065735 527.968506,381.519531 527.546082,461.605835 
	C527.509583,463.051208 527.473083,464.496552 527.201050,466.782806 
	C527.146118,468.525726 527.091187,470.268677 526.534729,472.617096 
	C525.349915,479.831909 524.402527,487.095337 522.937927,494.252899 
	C517.427734,521.182251 508.735077,546.895508 492.931396,569.726562 
	C483.270233,583.683777 471.462158,595.166748 454.951416,600.743652 
	C445.753387,603.850342 444.845001,604.880127 444.843201,614.489319 
	C444.836884,647.968323 444.842285,681.447388 444.033234,715.047852 
	C441.377930,715.300049 438.722626,715.552246 436.057831,714.891602 
	C436.048218,563.064392 436.038635,411.237213 436.028931,259.410034 
	C436.028839,257.910095 436.088043,256.407227 436.015442,254.910751 
	C435.678040,247.954666 433.193359,246.375702 426.734894,248.979355 
	C402.823517,258.618927 378.953125,268.362457 354.967346,277.813171 
	C350.280396,279.659882 346.997833,282.389709 345.111572,286.953918 
	C339.079102,301.550690 332.426514,315.925415 327.116486,330.780212 
	C309.526398,379.988647 295.976013,430.410706 283.017914,480.994507 
	C282.446167,483.226349 281.779755,485.433990 280.787689,488.971313 
	C279.813293,485.876007 279.319305,484.294617 278.817902,482.715607 
	C267.288300,446.407440 255.463989,410.170258 238.948639,375.769012 
	C232.870087,363.107452 224.783722,351.399689 217.442307,339.361084 
	C215.368484,335.960388 212.367035,335.328400 208.402557,336.953125 
	C183.627991,347.106232 158.782166,357.086304 133.923935,367.033722 
	C128.674240,369.134460 125.956879,372.675415 125.958412,378.399963 
	C125.989471,493.895111 125.995934,609.390259 125.494003,724.968994 
	C125.327057,725.012451 125.160110,725.055908 124.252243,724.939636 
	C123.508209,725.035034 122.764183,725.130432 121.084419,725.157715 
	C116.073288,725.393311 111.062164,725.628906 105.160133,725.727478 
	C99.774208,725.889282 94.388290,726.051086 88.152168,726.163574 
	C86.454124,726.219116 84.756081,726.274658 82.131386,726.129150 
	C65.941498,726.704102 49.751617,727.278992 33.561733,727.853943 
	C37.475319,728.483826 41.391750,728.836975 45.314800,729.085693 
	C48.462967,729.285400 51.618057,729.412476 54.772022,729.478027 
	C68.532791,729.763794 82.294281,730.015442 96.881111,730.643188 
	C99.588127,730.689880 102.295143,730.736511 105.879128,731.025452 
	C112.273743,731.103088 118.668350,731.180725 125.885582,731.477600 
	C127.592422,731.521179 129.299255,731.564758 131.492691,731.837158 
	C131.663284,731.782166 131.833862,731.727112 132.867020,731.818848 
	C134.908768,731.815491 136.950531,731.812134 139.873215,732.040710 
	C147.358765,732.104309 154.844330,732.167847 163.064240,732.474426 
	C166.376450,732.580383 169.688675,732.686279 173.868759,733.033447 
	C182.931061,733.246460 191.993362,733.459534 201.870209,733.821350 
	C203.247894,733.787048 204.625580,733.752747 206.883011,733.976135 
	C212.680954,734.048157 218.478897,734.120178 225.074661,734.432312 
	C226.734741,734.370911 228.394836,734.309509 230.450256,734.442749 
	C230.450256,734.442749 230.843231,734.243408 230.990585,734.018494 
z"/>
<path fill="#1176BB" opacity="1.000000" stroke="none" 
	d="
M126.007339,724.885437 
	C125.995934,609.390259 125.989471,493.895111 125.958412,378.399963 
	C125.956879,372.675415 128.674240,369.134460 133.923935,367.033722 
	C158.782166,357.086304 183.627991,347.106232 208.402557,336.953125 
	C212.367035,335.328400 215.368484,335.960388 217.442307,339.361084 
	C224.783722,351.399689 232.870087,363.107452 238.948639,375.769012 
	C255.463989,410.170258 267.288300,446.407440 278.817902,482.715607 
	C279.319305,484.294617 279.813293,485.876007 280.787689,488.971313 
	C281.779755,485.433990 282.446167,483.226349 283.017914,480.994507 
	C295.976013,430.410706 309.526398,379.988647 327.116486,330.780212 
	C332.426514,315.925415 339.079102,301.550690 345.111572,286.953918 
	C346.997833,282.389709 350.280396,279.659882 354.967346,277.813171 
	C378.953125,268.362457 402.823517,258.618927 426.734894,248.979355 
	C433.193359,246.375702 435.678040,247.954666 436.015442,254.910751 
	C436.088043,256.407227 436.028839,257.910095 436.028931,259.410034 
	C436.038635,411.237213 436.048218,563.064392 435.594543,715.375488 
	C429.134674,715.916199 423.135895,715.888611 417.141876,716.045166 
	C394.384583,716.639160 371.628845,717.292664 348.863892,717.460449 
	C348.855225,647.541199 348.855225,578.085510 348.855225,508.629852 
	C344.398895,531.349548 340.715027,554.133850 337.025177,576.917114 
	C333.382874,599.406799 329.730865,621.894836 326.091766,644.385071 
	C325.310760,649.211609 323.121735,651.926025 317.639099,652.266968 
	C293.728546,653.754089 269.838776,655.581543 245.946503,657.353333 
	C238.095749,657.935486 236.737991,657.047668 235.264511,649.256287 
	C231.464355,629.162048 227.728699,609.055542 223.941483,588.958801 
	C220.524826,570.828308 217.073975,552.704346 213.638199,534.577454 
	C213.426224,534.602173 213.214249,534.626831 213.002274,534.651489 
	C213.002274,538.145752 213.002182,541.639954 213.002289,545.134216 
	C213.004074,602.267517 213.007629,659.400879 212.999695,716.534180 
	C212.999451,718.361389 212.881546,720.188599 212.417572,722.081177 
	C211.055069,722.393188 210.098389,722.833862 209.131165,722.858337 
	C181.423874,723.559570 153.715515,724.219116 126.007339,724.885437 
M170.658813,428.032410 
	C178.102722,425.855194 185.587494,423.802521 192.953171,421.386810 
	C194.291824,420.947784 195.981903,419.087341 196.080917,417.775269 
	C196.628754,410.515320 196.948792,403.221222 196.923950,395.940308 
	C196.903931,390.071899 196.284317,384.205597 195.903900,377.893158 
	C192.357697,378.679962 189.613525,379.162689 186.941040,379.903809 
	C175.998657,382.938477 165.000000,385.810516 154.203888,389.304260 
	C151.465179,390.190521 147.463348,393.038239 147.341675,395.172729 
	C146.670639,406.945953 146.997665,418.777527 147.042404,430.588898 
	C147.051712,433.043610 148.154739,434.339142 150.860809,433.559479 
	C157.187729,431.736633 163.529999,429.967010 170.658813,428.032410 
M307.250916,447.804535 
	C305.487762,448.255646 303.455139,448.306458 302.032837,449.263916 
	C300.421753,450.348419 298.271942,452.216156 298.228912,453.794373 
	C297.902710,465.756622 298.000275,477.731506 298.051392,489.702087 
	C298.063873,492.625122 299.888275,493.422058 302.461792,492.674316 
	C306.584045,491.476624 310.681793,490.193390 314.782166,488.921417 
	C323.237427,486.298523 331.602936,483.327576 340.168976,481.140656 
	C346.093079,479.628296 348.326080,476.653503 348.010834,470.459076 
	C347.584534,462.083344 348.010529,453.667389 347.889740,445.271332 
	C347.846741,442.283508 347.274536,439.303345 346.906586,435.983276 
	C333.294617,440.012054 320.644073,443.756287 307.250916,447.804535 
M375.633118,429.163300 
	C374.360352,429.506439 373.076477,429.813416 371.816742,430.199158 
	C367.216827,431.607758 364.415619,433.663910 364.808594,439.558594 
	C365.492828,449.822937 365.087982,460.166962 364.953278,470.475128 
	C364.904602,474.200806 365.629272,475.637085 369.805023,474.279114 
	C382.638824,470.105377 395.457581,465.742706 408.556610,462.595917 
	C413.901093,461.312073 414.032043,458.879333 414.065491,454.770996 
	C414.151917,444.166382 414.629852,433.565094 414.728882,422.960419 
	C414.743835,421.361023 413.566132,419.750458 412.962006,418.201172 
	C400.379028,421.860046 388.372131,425.351410 375.633118,429.163300 
M420.001221,540.479126 
	C420.001221,535.326050 420.176208,530.165222 419.950836,525.022034 
	C419.735901,520.116455 421.026520,514.991821 419.049500,510.223663 
	C415.738312,511.286224 413.274475,512.145691 410.771149,512.868408 
	C398.874329,516.302917 386.932190,519.588074 375.103027,523.240234 
	C373.464172,523.746216 371.231995,525.971130 371.194397,527.449097 
	C370.881561,539.741943 370.957642,552.047302 371.160126,564.344849 
	C371.173706,565.169250 373.422607,566.853760 374.214050,566.633911 
	C385.940979,563.377136 397.661407,560.066528 409.251373,556.356140 
	C420.081390,552.889038 420.012604,552.674194 420.001221,540.479126 
M194.005478,610.414551 
	C194.005478,599.476990 194.005478,588.539368 194.005478,577.048645 
	C191.586609,577.222961 189.749268,577.054504 188.091751,577.522644 
	C175.347122,581.122131 162.703964,585.105530 149.879471,588.383545 
	C145.596359,589.478333 144.856613,591.474121 144.929077,595.307617 
	C145.133530,606.125244 144.999741,616.949280 144.999283,627.770752 
	C144.999207,629.359680 144.999268,630.948547 144.999268,633.238586 
	C148.707611,632.287476 151.560181,631.630493 154.368958,630.821533 
	C163.373322,628.228271 172.282440,625.255981 181.375076,623.029297 
	C193.935089,619.953369 193.992310,620.187012 194.005478,610.414551 
M179.895355,524.525208 
	C183.516647,523.359985 187.073654,521.879700 190.778473,521.123718 
	C194.067932,520.452576 195.102936,518.914917 195.059708,515.680908 
	C194.912903,504.696503 195.003845,493.708923 195.003967,482.722565 
	C195.003983,480.995911 195.003967,479.269257 195.003967,476.597473 
	C178.937653,481.324829 163.869751,485.651367 148.915604,490.340637 
	C147.567215,490.763428 146.188400,493.500244 146.127808,495.208679 
	C145.838959,503.354950 146.001144,511.517151 146.002319,519.673706 
	C146.002945,523.942444 146.002441,528.211182 146.002441,533.878601 
	C157.715851,530.681885 168.433945,527.756836 179.895355,524.525208 
M400.872131,660.546143 
	C405.478912,659.326782 410.076660,658.071777 414.695709,656.900818 
	C417.657990,656.149963 419.141907,654.593567 419.059296,651.280457 
	C418.872742,643.798706 419.003052,636.308960 419.003845,628.822510 
	C419.004395,623.720520 419.003937,618.618530 419.003937,612.863037 
	C416.321777,613.205017 414.350555,613.201416 412.533722,613.729187 
	C400.127228,617.333191 387.849762,621.442200 375.317169,624.518616 
	C370.833618,625.619263 369.830109,627.262878 369.924561,631.392639 
	C370.160309,641.701965 370.001251,652.020203 370.000671,662.334900 
	C370.000549,664.383484 370.000671,666.432129 370.000671,668.866272 
	C372.678680,668.244324 374.449158,667.893494 376.185944,667.419373 
	C384.164185,665.241272 392.133057,663.028748 400.872131,660.546143 
M252.916367,555.654785 
	C252.631378,556.414734 252.079468,557.182922 252.102493,557.933411 
	C252.345993,565.873169 252.749100,573.808289 252.965881,581.748474 
	C253.100479,586.678955 252.990845,591.616028 252.990845,597.295532 
	C259.693298,595.610779 265.583038,594.300537 271.370758,592.635742 
	C280.061615,590.135864 288.662018,587.322632 297.340851,584.778992 
	C300.470764,583.861755 302.061035,582.207703 302.029755,578.787476 
	C301.927856,567.648804 302.046539,556.508179 301.962585,545.369202 
	C301.931946,541.299622 300.123688,540.237488 296.141205,541.450684 
	C289.727600,543.404541 283.253540,545.165833 276.870422,547.212524 
	C269.031281,549.725952 261.259369,552.449097 252.916367,555.654785 
M409.006104,328.563599 
	C409.005615,320.001770 409.005280,319.999054 400.762177,321.009186 
	C399.942230,321.109680 399.099426,321.172424 398.317963,321.415588 
	C387.409698,324.809906 376.585846,328.509918 365.571014,331.509796 
	C361.258850,332.684204 359.961151,334.888306 359.985107,338.863312 
	C360.047455,349.194794 359.974609,359.527008 360.018463,369.858673 
	C360.039093,374.717316 361.955566,376.029785 366.623474,374.631012 
	C379.467682,370.782196 392.271851,366.784576 405.201355,363.246063 
	C408.416840,362.365997 409.063721,360.884094 409.038025,358.043579 
	C408.952240,348.545746 409.005920,339.046600 409.006104,328.563599 
M235.531113,467.989197 
	C231.431030,469.317627 227.399155,470.957642 223.209045,471.874756 
	C219.932571,472.591888 218.902771,474.093536 218.947372,477.320770 
	C219.096695,488.126526 218.974716,498.935730 219.015259,509.743378 
	C219.034714,514.934631 220.330505,515.791260 225.421112,514.327942 
	C232.235672,512.369141 239.073868,510.492462 245.887131,508.529175 
	C251.611664,506.879639 257.326630,505.194550 263.023621,503.452484 
	C266.590302,502.361786 268.260071,500.242676 268.109650,496.129486 
	C267.775665,486.996643 268.006927,477.843140 268.007599,468.698059 
	C268.007812,465.637146 268.007599,462.576202 268.007599,458.879913 
	C256.807922,462.026825 246.557266,464.907043 235.531113,467.989197 
z"/>
<path fill="#0F416C" opacity="1.000000" stroke="none" 
	d="
M719.097534,699.833740 
	C715.899353,685.061157 712.797546,670.266968 709.486450,655.519775 
	C694.046997,586.755371 678.549622,518.003906 663.073059,449.247772 
	C648.510986,384.554535 633.907104,319.870605 619.482300,255.146805 
	C618.530701,250.876984 618.513611,246.269516 618.854858,241.880768 
	C619.141968,238.188370 621.446594,236.535431 625.583008,237.811432 
	C648.285217,244.814682 671.021301,251.709976 693.788940,258.497650 
	C698.359192,259.860138 699.966553,263.266998 700.892761,267.261261 
	C710.614929,309.187500 720.290710,351.124481 729.969177,393.060852 
	C740.359863,438.083191 750.737427,483.108582 761.136353,528.129089 
	C761.395691,529.251709 761.838074,530.332092 762.503540,532.382690 
	C767.149719,515.106323 771.565918,498.721130 775.962402,482.330627 
	C791.715332,423.602905 807.458435,364.872559 823.215027,306.145844 
	C824.996216,299.507202 826.138733,298.855194 832.722412,300.838470 
	C854.033691,307.258179 875.273621,313.924866 896.667053,320.056885 
	C905.746094,322.659241 907.965149,327.822693 905.363831,337.841248 
	C899.058655,362.125214 892.287292,386.288361 885.669067,410.490723 
	C860.163635,503.762848 834.644348,597.031189 809.133728,690.301880 
	C808.958008,690.944214 808.831726,691.600159 808.357727,692.716919 
	C807.891113,693.392822 807.797363,693.621277 807.308899,693.910034 
	C777.609741,695.911499 748.353699,697.872620 719.097534,699.833740 
M851.827148,338.806183 
	C844.870667,336.800354 837.914246,334.794525 831.038757,332.812012 
	C830.497375,333.728729 830.138672,334.118530 830.018433,334.571594 
	C826.194092,348.984955 822.349060,363.393341 818.702759,377.851868 
	C818.495972,378.671875 819.765015,380.618958 820.654846,380.848480 
	C836.500732,384.934784 852.394226,388.836212 868.679810,392.877289 
	C872.169006,378.572876 875.702820,364.641693 878.784973,350.611267 
	C879.102051,349.167816 877.078979,346.071533 875.532471,345.550446 
	C868.009338,343.015564 860.278870,341.096375 851.827148,338.806183 
M860.961975,435.410767 
	C861.951782,431.251892 862.941589,427.093018 863.899231,423.069305 
	C863.439758,422.654144 863.233093,422.318359 862.951416,422.234253 
	C847.752747,417.696411 832.562805,413.126740 817.301514,408.809143 
	C816.494141,408.580750 814.358948,410.312744 814.055969,411.454346 
	C810.792175,423.750366 807.782410,436.113708 804.681946,448.453278 
	C802.798401,455.949951 803.023010,456.188446 810.168091,457.893982 
	C823.013550,460.960266 835.845398,464.092255 848.626404,467.414093 
	C851.922119,468.270660 853.432190,467.826324 854.202087,464.201935 
	C856.192627,454.831268 858.577820,445.544464 860.961975,435.410767 
M791.995483,502.497223 
	C789.834412,510.987640 787.653137,519.473022 785.527100,527.972229 
	C785.026367,529.974060 783.838684,532.193115 787.262207,533.046265 
	C802.947388,536.955261 818.610596,540.952576 834.046997,544.858826 
	C834.622131,544.209839 834.968689,543.996826 835.037231,543.715881 
	C838.365112,530.081177 841.716858,516.451843 844.933228,502.790680 
	C845.540649,500.210938 844.542786,498.397614 841.601929,497.696411 
	C837.099121,496.622833 832.678284,495.205353 828.222900,493.933105 
	C817.768250,490.947723 807.313782,487.961914 796.605835,484.903900 
	C794.984375,490.866150 793.515198,496.268280 791.995483,502.497223 
M665.240295,337.211548 
	C678.579529,340.567230 691.918701,343.922943 705.945435,347.451599 
	C705.518005,345.620636 705.424683,344.977722 705.218506,344.373322 
	C700.946228,331.849823 696.626770,319.342255 692.401428,306.803009 
	C691.271240,303.449158 688.945801,301.950439 685.649109,301.023376 
	C675.946533,298.294983 666.340942,295.223785 656.657532,292.424530 
	C652.034363,291.088013 647.321106,290.063171 641.759277,288.675201 
	C645.654968,301.784698 649.574890,313.577454 652.569763,325.600616 
	C654.249939,332.345520 657.078918,336.739929 665.240295,337.211548 
M742.064758,560.512939 
	C729.971191,556.908508 717.877625,553.304077 704.903748,549.437256 
	C705.184937,552.489014 705.063721,554.327026 705.553772,555.984314 
	C708.984009,567.584839 712.675537,579.109741 715.977661,590.745605 
	C717.020691,594.421143 718.978027,596.187317 722.610474,597.022156 
	C731.648499,599.099304 740.614502,601.489136 749.614441,603.733154 
	C755.473877,605.194214 761.342102,606.619873 768.002747,608.257141 
	C767.289795,605.802856 766.904724,604.248108 766.388733,602.738159 
	C763.117004,593.164368 759.279663,583.742554 756.696106,573.988037 
	C754.659058,566.296570 751.399597,561.057556 742.064758,560.512939 
M670.186218,398.165588 
	C671.298828,401.804016 672.681763,405.387115 673.441467,409.097748 
	C674.088318,412.257324 675.423950,413.734528 678.726135,414.496490 
	C692.112915,417.585419 705.403015,421.090973 718.749695,424.357635 
	C720.571411,424.803558 722.510925,424.768463 725.275391,425.043610 
	C720.821106,412.113495 716.339661,400.165253 712.668518,387.973083 
	C710.986938,382.388275 707.699890,380.216278 702.482910,378.829712 
	C691.768555,375.981995 681.223694,372.501495 670.576233,369.393890 
	C667.992310,368.639709 665.281006,368.322113 661.413391,367.566406 
	C664.541260,378.378174 667.289124,387.876526 670.186218,398.165588 
M707.933594,507.490082 
	C720.139404,510.621399 732.345215,513.752747 744.994202,516.997803 
	C744.848022,515.167542 744.947571,514.299683 744.693848,513.551575 
	C740.382080,500.840363 736.154297,488.097198 731.534363,475.498047 
	C730.888245,473.736023 728.476196,472.057770 726.530273,471.430023 
	C715.993896,468.031128 705.358398,464.936127 694.732422,461.820251 
	C690.631409,460.617706 686.465759,459.635925 681.519775,458.341675 
	C685.288147,471.015472 689.592957,482.403076 691.884094,494.182312 
	C693.697937,503.507843 699.023071,506.444794 707.933594,507.490082 
z"/>
<path fill="#0E416D" opacity="1.000000" stroke="none" 
	d="
M607.494263,527.895203 
	C602.307251,577.537415 589.998474,624.851501 561.653809,666.828735 
	C552.575928,680.272644 541.666443,692.095154 528.338623,701.516602 
	C527.997498,626.821716 527.999634,552.519348 527.946716,478.217041 
	C527.945251,476.148346 527.352966,474.080078 527.036194,472.011597 
	C527.091187,470.268677 527.146118,468.525726 527.528259,466.065552 
	C527.861694,463.889984 527.867920,462.431671 527.874146,460.973328 
	C527.968506,381.519531 528.062622,302.065735 528.157471,222.611954 
	C528.172913,209.688385 529.609985,208.621506 541.848206,212.345734 
	C561.235718,218.245560 580.579346,224.298340 600.050049,229.910065 
	C605.729675,231.546997 609.088928,234.456696 609.519043,241.018387 
	C609.162415,242.545578 609.006104,243.367691 609.005981,244.189850 
	C608.994690,324.362579 608.991150,404.535309 609.028442,484.708008 
	C609.029053,486.134705 609.528870,487.561096 609.795715,488.987640 
	C609.801941,491.708038 609.808105,494.428467 609.432739,497.833923 
	C608.952576,503.667023 608.853943,508.815063 608.755249,513.963135 
	C608.648682,515.742310 608.542114,517.521423 607.971558,519.883423 
	C607.503052,522.942505 607.498657,525.418884 607.494263,527.895203 
M583.063232,354.513763 
	C571.257141,351.035400 559.451050,347.557007 547.005310,343.890198 
	C547.005310,358.091431 546.933594,371.368713 547.130310,384.641968 
	C547.147583,385.806122 548.702698,387.499817 549.926575,387.988892 
	C553.434937,389.390747 557.130737,390.332367 560.770081,391.395935 
	C571.081543,394.409210 581.423096,397.321686 591.704712,400.433075 
	C594.712708,401.343384 596.056274,400.860657 596.032349,397.452332 
	C595.948425,385.477722 596.105347,373.500031 595.866211,361.529572 
	C595.836792,360.053894 594.277710,357.925659 592.888428,357.303589 
	C590.059875,356.037079 586.863403,355.592285 583.063232,354.513763 
M592.011719,308.492004 
	C592.013428,300.660461 591.746765,292.815979 592.124817,285.002625 
	C592.327881,280.805389 590.675903,279.082764 586.911194,278.049927 
	C577.806030,275.551880 568.790649,272.728119 559.715332,270.118530 
	C554.422119,268.596527 549.083008,267.234222 543.018372,265.598846 
	C543.018372,279.949921 542.943970,293.240692 543.152466,306.527039 
	C543.170105,307.652435 544.885559,309.348541 546.143127,309.754425 
	C551.806702,311.582336 557.606873,312.981293 563.325684,314.645233 
	C572.657898,317.360443 581.965027,320.161530 592.010864,323.142426 
	C592.010864,318.075989 592.010864,313.781250 592.011719,308.492004 
M586.964111,580.493896 
	C589.458191,581.199463 591.952271,581.905029 594.693848,582.680542 
	C594.693848,568.072144 594.693848,553.832092 594.693848,539.420715 
	C578.620789,534.784973 562.790039,530.219116 547.225525,525.730042 
	C546.548279,526.717712 546.203308,526.986267 546.201538,527.257019 
	C546.116699,540.239929 546.003967,553.223511 546.112305,566.205139 
	C546.120972,567.241272 547.493042,568.881531 548.546082,569.199707 
	C561.065491,572.981140 573.644592,576.564880 586.964111,580.493896 
M544.990234,453.505310 
	C544.990479,461.654541 545.067932,469.804962 544.945557,477.952362 
	C544.907166,480.507141 545.616150,481.605804 548.298218,482.344818 
	C562.004944,486.121796 575.656372,490.111969 589.250366,494.277954 
	C592.810120,495.368835 594.103333,494.830597 594.058716,490.942993 
	C593.925049,479.302734 593.889282,467.657959 594.088074,456.019592 
	C594.139526,453.002716 592.807678,451.919495 590.310364,451.207581 
	C583.952942,449.395142 577.629700,447.463074 571.279968,445.623352 
	C562.739868,443.148956 554.187744,440.716309 544.990234,438.079224 
	C544.990234,443.270721 544.990234,447.889404 544.990234,453.505310 
z"/>
<path fill="#1276BA" opacity="1.000000" stroke="none" 
	d="
M526.785461,472.314331 
	C527.352966,474.080078 527.945251,476.148346 527.946716,478.217041 
	C527.999634,552.519348 527.997498,626.821716 528.005859,701.597534 
	C522.844604,705.528076 517.680481,708.985107 511.887482,712.766418 
	C508.442657,713.102661 505.624756,713.052185 502.810944,713.136841 
	C483.487885,713.717529 464.165710,714.326538 444.843231,714.926392 
	C444.842285,681.447388 444.836884,647.968323 444.843201,614.489319 
	C444.845001,604.880127 445.753387,603.850342 454.951416,600.743652 
	C471.462158,595.166748 483.270233,583.683777 492.931396,569.726562 
	C508.735077,546.895508 517.427734,521.182251 522.937927,494.252899 
	C524.402527,487.095337 525.349915,479.831909 526.785461,472.314331 
M489.088135,602.472290 
	C482.493225,604.569763 475.988861,607.059326 469.267883,608.610657 
	C465.522278,609.475220 464.915619,611.228577 464.962280,614.464905 
	C465.094269,623.617065 465.007965,632.772278 465.007233,641.926331 
	C465.006409,652.541077 465.037903,652.660522 475.324310,649.932800 
	C487.464752,646.713379 499.578033,643.375977 511.603333,639.758179 
	C513.052368,639.322205 514.758423,636.866577 514.842896,635.267639 
	C515.202576,628.462708 514.997131,621.627869 514.997498,614.803955 
	C514.997864,608.695618 514.997559,602.587219 514.997559,595.620972 
	C506.051971,597.954956 497.951202,600.068542 489.088135,602.472290 
z"/>
<path fill="#10426D" opacity="1.000000" stroke="none" 
	d="
M444.438232,714.987122 
	C464.165710,714.326538 483.487885,713.717529 502.810944,713.136841 
	C505.624756,713.052185 508.442657,713.102661 511.739746,713.060730 
	C517.520630,712.973694 522.820496,712.916504 528.573486,713.424438 
	C529.073608,723.699951 529.120544,733.410522 529.167480,743.121033 
	C528.979675,743.195740 528.791809,743.270508 528.033752,742.927734 
	C521.975403,742.601990 516.487366,742.693848 510.999298,742.785645 
	C509.618866,742.796265 508.238403,742.806885 506.435120,742.525879 
	C505.841370,742.028198 505.670471,741.822205 505.499573,741.616211 
	C505.318573,741.964294 505.137604,742.312439 504.956604,742.660522 
	C502.585632,742.587708 500.214630,742.514893 497.186340,742.015991 
	C490.017059,741.654785 483.505096,741.719604 476.993103,741.784424 
	C475.292206,741.798340 473.591278,741.812256 471.336334,741.387939 
	C461.524323,740.884460 452.266357,740.819275 443.008392,740.754028 
	C440.588440,740.765686 438.168488,740.777405 435.023987,740.425049 
	C425.866669,739.956177 417.433929,739.851440 409.001160,739.746765 
	C406.635681,739.760437 404.270172,739.774170 401.327911,739.299866 
	C392.498993,738.816589 384.246857,738.821350 375.994720,738.826111 
	C371.979889,738.710266 367.965088,738.594421 363.303162,738.060669 
	C355.769440,737.694092 348.882812,737.745361 341.996216,737.796631 
	C340.278870,737.804016 338.561493,737.811401 336.187134,737.446106 
	C326.356842,736.970764 317.183533,736.868164 308.010223,736.765503 
	C304.652710,736.671021 301.295197,736.576599 297.294495,736.058838 
	C289.327698,735.262146 282.004547,734.877563 274.678192,734.568665 
	C274.454742,734.559204 274.198120,735.337341 273.956970,735.748291 
	C272.253876,735.773987 270.550812,735.799683 268.335693,735.609558 
	C267.546600,735.486511 267.269531,735.579224 266.992462,735.671936 
	C265.936707,735.612793 264.880981,735.553589 263.242828,735.070312 
	C255.438751,734.708679 248.217072,734.771301 240.995392,734.833862 
	C238.264969,734.820251 235.534561,734.806641 232.227020,734.480591 
	C231.362579,734.025330 231.087418,734.045959 230.824432,734.229858 
	C230.824432,734.229858 230.990585,734.018494 230.887238,733.933594 
	C230.540878,733.981873 230.297897,734.114990 230.054916,734.248169 
	C228.394836,734.309509 226.734741,734.370911 224.284698,734.104736 
	C217.664261,733.757568 211.833755,733.737976 206.003265,733.718445 
	C204.625580,733.752747 203.247894,733.787048 201.326111,733.382568 
	C191.521622,732.893311 182.261261,732.842773 173.000885,732.792236 
	C169.688675,732.686279 166.376450,732.580383 162.301849,732.144775 
	C154.023743,731.812988 146.508011,731.810852 138.992279,731.808716 
	C136.950531,731.812134 134.908768,731.815491 132.350510,731.599121 
	C131.558029,731.455688 131.282059,731.531982 131.006104,731.608337 
	C129.299255,731.564758 127.592422,731.521179 125.271637,731.060181 
	C118.105843,730.689636 111.554001,730.736389 105.002159,730.783203 
	C102.295143,730.736511 99.588127,730.689880 96.274063,730.150208 
	C92.620834,729.450806 89.530441,729.481873 86.549202,728.926758 
	C85.268723,728.688293 84.214867,727.232788 83.058044,726.330200 
	C84.756081,726.274658 86.454124,726.219116 88.911697,726.426392 
	C95.131157,726.414307 100.591103,726.139404 106.051041,725.864502 
	C111.062164,725.628906 116.073288,725.393311 121.758606,725.394653 
	C123.286255,725.454224 124.139717,725.276855 124.993164,725.099487 
	C125.160110,725.055908 125.327057,725.012451 125.750671,724.927246 
	C153.715515,724.219116 181.423874,723.559570 209.131165,722.858337 
	C210.098389,722.833862 211.055069,722.393188 212.633636,722.403320 
	C214.049164,722.492188 214.843887,722.199097 215.646835,722.174561 
	C238.102570,721.487244 260.560333,720.864685 283.015259,720.151733 
	C304.969116,719.454773 326.920227,718.670105 348.872528,717.923950 
	C371.628845,717.292664 394.384583,716.639160 417.141876,716.045166 
	C423.135895,715.888611 429.134674,715.916199 435.599304,715.831909 
	C438.722626,715.552246 441.377930,715.300049 444.438232,714.987122 
z"/>
<path fill="#1577BA" opacity="1.000000" stroke="none" 
	d="
M529.527161,743.180664 
	C529.120544,733.410522 529.073608,723.699951 529.034546,713.525391 
	C542.298096,712.030823 555.547424,710.906677 568.810852,709.987793 
	C605.973022,707.413513 643.140686,704.917969 680.307068,702.404358 
	C692.919434,701.551392 705.534485,700.737183 718.622925,699.869507 
	C748.353699,697.872620 777.609741,695.911499 807.640503,694.062134 
	C810.240845,693.980469 812.066467,693.787231 813.892151,693.593933 
	C814.363037,693.463318 814.833923,693.332764 816.004517,693.493042 
	C819.498901,693.844055 822.323303,694.191467 825.082275,693.906250 
	C831.375427,693.255798 837.636658,692.295288 843.910828,691.460754 
	C844.689392,691.360596 845.467957,691.260437 846.965820,691.447876 
	C855.073303,691.735413 862.461548,691.735413 868.130676,691.735413 
	C866.159485,692.326477 862.557434,693.406555 858.955383,694.486633 
	C858.525208,694.600708 858.094971,694.714722 857.012817,694.577148 
	C848.276245,695.691650 840.191650,697.057739 832.107117,698.423828 
	C831.644226,698.557007 831.181274,698.690186 830.056396,698.572388 
	C826.490417,698.559082 823.544250,698.565308 820.691589,699.084900 
	C815.465393,700.036804 810.294373,701.291809 805.100342,702.420349 
	C804.637695,702.549438 804.175110,702.678467 803.062378,702.572754 
	C798.929626,703.003052 795.446899,703.668213 791.964172,704.333313 
	C791.530334,704.480713 791.096497,704.628113 790.010803,704.531494 
	C785.894470,704.931030 782.429932,705.574585 778.965454,706.218079 
	C778.230103,706.417847 777.494751,706.617676 776.076233,706.578613 
	C770.596130,707.208740 765.799255,708.077820 761.002319,708.946899 
	C738.986084,712.292114 716.977173,715.686279 694.951904,718.971191 
	C660.113281,724.167053 625.264038,729.291870 590.418640,734.442383 
	C570.852539,737.334473 551.285034,740.218018 531.211121,743.159058 
	C530.704041,743.212708 530.608398,743.135376 530.608398,743.135376 
	C530.367859,743.170349 530.127380,743.205261 529.527161,743.180664 
z"/>
<path fill="#1F3E5B" opacity="1.000000" stroke="none" 
	d="
M609.894653,488.528381 
	C609.528870,487.561096 609.029053,486.134705 609.028442,484.708008 
	C608.991150,404.535309 608.994690,324.362579 609.005981,244.189850 
	C609.006104,243.367691 609.162415,242.545578 609.477722,241.387741 
	C609.813110,242.371384 610.006958,243.690735 610.007080,245.010071 
	C610.012695,326.029755 610.002441,407.049469 609.894653,488.528381 
z"/>
<path fill="#335674" opacity="1.000000" stroke="none" 
	d="
M82.594719,726.229675 
	C84.214867,727.232788 85.268723,728.688293 86.549202,728.926758 
	C89.530441,729.481873 92.620834,729.450806 95.861259,729.968384 
	C82.294281,730.015442 68.532791,729.763794 54.772022,729.478027 
	C51.618057,729.412476 48.462967,729.285400 45.314800,729.085693 
	C41.391750,728.836975 37.475319,728.483826 33.561733,727.853943 
	C49.751617,727.278992 65.941498,726.704102 82.594719,726.229675 
z"/>
<path fill="#3B82B2" opacity="1.000000" stroke="none" 
	d="
M859.360474,694.514526 
	C862.557434,693.406555 866.159485,692.326477 868.130676,691.735413 
	C862.461548,691.735413 855.073303,691.735413 847.359375,691.499634 
	C861.182373,690.255798 875.331177,689.247681 889.479919,688.239563 
	C889.552185,688.870178 889.624512,689.500793 889.696777,690.131470 
	C879.719727,691.601746 869.742676,693.072083 859.360474,694.514526 
z"/>
<path fill="#335674" opacity="1.000000" stroke="none" 
	d="
M173.434814,732.912842 
	C182.261261,732.842773 191.521622,732.893311 200.918823,733.308228 
	C191.993362,733.459534 182.931061,733.246460 173.434814,732.912842 
z"/>
<path fill="#335674" opacity="1.000000" stroke="none" 
	d="
M443.445618,740.878357 
	C452.266357,740.819275 461.524323,740.884460 470.917572,741.314819 
	C461.996185,741.454102 452.939514,741.228394 443.445618,740.878357 
z"/>
<path fill="#335674" opacity="1.000000" stroke="none" 
	d="
M308.447327,736.889038 
	C317.183533,736.868164 326.356842,736.970764 335.763672,737.375427 
	C326.959595,737.455750 317.921997,737.234131 308.447327,736.889038 
z"/>
<path fill="#3B82B2" opacity="1.000000" stroke="none" 
	d="
M843.480469,691.380676 
	C837.636658,692.295288 831.375427,693.255798 825.082275,693.906250 
	C822.323303,694.191467 819.498901,693.844055 816.371704,693.548767 
	C825.042908,692.642639 834.046509,691.971619 843.480469,691.380676 
z"/>
<path fill="#335674" opacity="1.000000" stroke="none" 
	d="
M376.432373,738.932739 
	C384.246857,738.821350 392.498993,738.816589 400.907990,739.159790 
	C392.999908,739.351624 384.934937,739.195496 376.432373,738.932739 
z"/>
<path fill="#3B82B2" opacity="1.000000" stroke="none" 
	d="
M832.493408,698.502991 
	C840.191650,697.057739 848.276245,695.691650 856.674622,694.563477 
	C848.952209,696.061646 840.916016,697.321899 832.493408,698.502991 
z"/>
<path fill="#335674" opacity="1.000000" stroke="none" 
	d="
M409.438660,739.873779 
	C417.433929,739.851440 425.866669,739.956177 434.597839,740.266235 
	C426.556183,740.314636 418.216187,740.157715 409.438660,739.873779 
z"/>
<path fill="#335674" opacity="1.000000" stroke="none" 
	d="
M274.396545,735.878784 
	C274.198120,735.337341 274.454742,734.559204 274.678192,734.568665 
	C282.004547,734.877563 289.327698,735.262146 296.853668,735.942444 
	C289.649353,736.169373 282.242737,736.089294 274.396545,735.878784 
z"/>
<path fill="#3B82B2" opacity="1.000000" stroke="none" 
	d="
M805.487427,702.500366 
	C810.294373,701.291809 815.465393,700.036804 820.691589,699.084900 
	C823.544250,698.565308 826.490417,698.559082 829.691650,698.557861 
	C821.950806,700.056396 813.912598,701.318420 805.487427,702.500366 
z"/>
<path fill="#335674" opacity="1.000000" stroke="none" 
	d="
M139.432739,731.924683 
	C146.508011,731.810852 154.023743,731.812988 161.934677,732.023315 
	C154.844330,732.167847 147.358765,732.104309 139.432739,731.924683 
z"/>
<path fill="#335674" opacity="1.000000" stroke="none" 
	d="
M241.433380,734.938049 
	C248.217072,734.771301 255.438751,734.708679 262.862701,734.954590 
	C256.000427,735.189453 248.935913,735.115845 241.433380,734.938049 
z"/>
<path fill="#335674" opacity="1.000000" stroke="none" 
	d="
M342.434753,737.919189 
	C348.882812,737.745361 355.769440,737.694092 362.856567,737.951538 
	C356.329163,738.187500 349.601196,738.114685 342.434753,737.919189 
z"/>
<path fill="#335674" opacity="1.000000" stroke="none" 
	d="
M477.433228,741.901550 
	C483.505096,741.719604 490.017059,741.654785 496.799927,741.921997 
	C490.671692,742.175537 484.272522,742.097107 477.433228,741.901550 
z"/>
<path fill="#335674" opacity="1.000000" stroke="none" 
	d="
M105.440643,730.904297 
	C111.554001,730.736389 118.105843,730.689636 124.860321,730.950562 
	C118.668350,731.180725 112.273743,731.103088 105.440643,730.904297 
z"/>
<path fill="#335674" opacity="1.000000" stroke="none" 
	d="
M105.605591,725.796021 
	C100.591103,726.139404 95.131157,726.414307 89.336792,726.451050 
	C94.388290,726.051086 99.774208,725.889282 105.605591,725.796021 
z"/>
<path fill="#335674" opacity="1.000000" stroke="none" 
	d="
M511.436554,742.908142 
	C516.487366,742.693848 521.975403,742.601990 527.751099,742.817810 
	C522.650452,743.093811 517.262146,743.062195 511.436554,742.908142 
z"/>
<path fill="#335674" opacity="1.000000" stroke="none" 
	d="
M206.443146,733.847290 
	C211.833755,733.737976 217.664261,733.757568 223.885803,733.984680 
	C218.478897,734.120178 212.680954,734.048157 206.443146,733.847290 
z"/>
<path fill="#1F3E5B" opacity="1.000000" stroke="none" 
	d="
M608.868774,513.531616 
	C608.853943,508.815063 608.952576,503.667023 609.344482,498.279175 
	C609.419189,503.059631 609.200684,508.079834 608.868774,513.531616 
z"/>
<path fill="#3B82B2" opacity="1.000000" stroke="none" 
	d="
M761.436646,708.994812 
	C765.799255,708.077820 770.596130,707.208740 775.688965,706.573975 
	C771.280273,707.552979 766.575623,708.297852 761.436646,708.994812 
z"/>
<path fill="#3B82B2" opacity="1.000000" stroke="none" 
	d="
M779.348511,706.287354 
	C782.429932,705.574585 785.894470,704.931030 789.664185,704.516846 
	C786.556824,705.282959 783.144165,705.819763 779.348511,706.287354 
z"/>
<path fill="#3B82B2" opacity="1.000000" stroke="none" 
	d="
M792.350708,704.414001 
	C795.446899,703.668213 798.929626,703.003052 802.698914,702.569580 
	C799.569397,703.365784 796.153381,703.930237 792.350708,704.414001 
z"/>
<path fill="#3B82B2" opacity="1.000000" stroke="none" 
	d="
M813.444580,693.469666 
	C812.066467,693.787231 810.240845,693.980469 808.083557,694.021729 
	C807.797363,693.621277 807.891113,693.392822 808.201782,693.101624 
	C809.912598,693.127808 811.454834,693.236572 813.444580,693.469666 
z"/>
<path fill="#1F3E5B" opacity="1.000000" stroke="none" 
	d="
M607.648621,527.480591 
	C607.498657,525.418884 607.503052,522.942505 607.808044,520.228760 
	C608.006714,522.349548 607.904846,524.707764 607.648621,527.480591 
z"/>
<path fill="#1276BA" opacity="1.000000" stroke="none" 
	d="
M527.710083,461.289581 
	C527.867920,462.431671 527.861694,463.889984 527.645996,465.645142 
	C527.473083,464.496552 527.509583,463.051208 527.710083,461.289581 
z"/>
<path fill="#335674" opacity="1.000000" stroke="none" 
	d="
M124.622711,725.019531 
	C124.139717,725.276855 123.286255,725.454224 122.226479,725.428772 
	C122.764183,725.130432 123.508209,725.035034 124.622711,725.019531 
z"/>
<path fill="#335674" opacity="1.000000" stroke="none" 
	d="
M505.228149,742.748779 
	C505.137604,742.312439 505.318573,741.964294 505.499573,741.616211 
	C505.670471,741.822205 505.841370,742.028198 506.028107,742.449219 
	C505.862488,742.721802 505.681091,742.779419 505.228149,742.748779 
z"/>
<path fill="#335674" opacity="1.000000" stroke="none" 
	d="
M530.663940,743.174133 
	C530.608398,743.135376 530.704041,743.212708 530.705627,743.204529 
	C530.707214,743.196350 530.994385,743.132996 530.994385,743.132996 
	C530.994385,743.132996 530.719482,743.212891 530.663940,743.174133 
z"/>
<path fill="#335674" opacity="1.000000" stroke="none" 
	d="
M267.244629,735.768921 
	C267.269531,735.579224 267.546600,735.486511 267.915222,735.540405 
	C267.836792,735.746765 267.666809,735.806335 267.244629,735.768921 
z"/>
<path fill="#335674" opacity="1.000000" stroke="none" 
	d="
M230.973541,734.380737 
	C231.087418,734.045959 231.362579,734.025330 231.798920,734.323242 
	C231.947922,734.478394 231.541397,734.599976 231.541397,734.599976 
	C231.541397,734.599976 231.122650,734.531616 230.973541,734.380737 
z"/>
<path fill="#335674" opacity="1.000000" stroke="none" 
	d="
M230.252594,734.345459 
	C230.297897,734.114990 230.540878,733.981873 230.813553,734.046021 
	C230.843231,734.243408 230.450256,734.442749 230.252594,734.345459 
z"/>
<path fill="#335674" opacity="1.000000" stroke="none" 
	d="
M131.249390,731.722778 
	C131.282059,731.531982 131.558029,731.455688 131.919220,731.525757 
	C131.833862,731.727112 131.663284,731.782166 131.249390,731.722778 
z"/>
<path fill="#FBFEFE" opacity="1.000000" stroke="none" 
	d="
M348.863892,717.460449 
	C326.920227,718.670105 304.969116,719.454773 283.015259,720.151733 
	C260.560333,720.864685 238.102570,721.487244 215.646835,722.174561 
	C214.843887,722.199097 214.049164,722.492188 213.034546,722.337952 
	C212.881546,720.188599 212.999451,718.361389 212.999695,716.534180 
	C213.007629,659.400879 213.004074,602.267517 213.002289,545.134216 
	C213.002182,541.639954 213.002274,538.145752 213.002274,534.651489 
	C213.214249,534.626831 213.426224,534.602173 213.638199,534.577454 
	C217.073975,552.704346 220.524826,570.828308 223.941483,588.958801 
	C227.728699,609.055542 231.464355,629.162048 235.264511,649.256287 
	C236.737991,657.047668 238.095749,657.935486 245.946503,657.353333 
	C269.838776,655.581543 293.728546,653.754089 317.639099,652.266968 
	C323.121735,651.926025 325.310760,649.211609 326.091766,644.385071 
	C329.730865,621.894836 333.382874,599.406799 337.025177,576.917114 
	C340.715027,554.133850 344.398895,531.349548 348.855225,508.629852 
	C348.855225,578.085510 348.855225,647.541199 348.863892,717.460449 
z"/>
<path fill="#1D66A4" opacity="1.000000" stroke="none" 
	d="
M170.262436,428.104126 
	C163.529999,429.967010 157.187729,431.736633 150.860809,433.559479 
	C148.154739,434.339142 147.051712,433.043610 147.042404,430.588898 
	C146.997665,418.777527 146.670639,406.945953 147.341675,395.172729 
	C147.463348,393.038239 151.465179,390.190521 154.203888,389.304260 
	C165.000000,385.810516 175.998657,382.938477 186.941040,379.903809 
	C189.613525,379.162689 192.357697,378.679962 195.903900,377.893158 
	C196.284317,384.205597 196.903931,390.071899 196.923950,395.940308 
	C196.948792,403.221222 196.628754,410.515320 196.080917,417.775269 
	C195.981903,419.087341 194.291824,420.947784 192.953171,421.386810 
	C185.587494,423.802521 178.102722,425.855194 170.262436,428.104126 
z"/>
<path fill="#1D66A4" opacity="1.000000" stroke="none" 
	d="
M307.622253,447.652527 
	C320.644073,443.756287 333.294617,440.012054 346.906586,435.983276 
	C347.274536,439.303345 347.846741,442.283508 347.889740,445.271332 
	C348.010529,453.667389 347.584534,462.083344 348.010834,470.459076 
	C348.326080,476.653503 346.093079,479.628296 340.168976,481.140656 
	C331.602936,483.327576 323.237427,486.298523 314.782166,488.921417 
	C310.681793,490.193390 306.584045,491.476624 302.461792,492.674316 
	C299.888275,493.422058 298.063873,492.625122 298.051392,489.702087 
	C298.000275,477.731506 297.902710,465.756622 298.228912,453.794373 
	C298.271942,452.216156 300.421753,450.348419 302.032837,449.263916 
	C303.455139,448.306458 305.487762,448.255646 307.622253,447.652527 
z"/>
<path fill="#1D66A4" opacity="1.000000" stroke="none" 
	d="
M375.999146,429.003052 
	C388.372131,425.351410 400.379028,421.860046 412.962006,418.201172 
	C413.566132,419.750458 414.743835,421.361023 414.728882,422.960419 
	C414.629852,433.565094 414.151917,444.166382 414.065491,454.770996 
	C414.032043,458.879333 413.901093,461.312073 408.556610,462.595917 
	C395.457581,465.742706 382.638824,470.105377 369.805023,474.279114 
	C365.629272,475.637085 364.904602,474.200806 364.953278,470.475128 
	C365.087982,460.166962 365.492828,449.822937 364.808594,439.558594 
	C364.415619,433.663910 367.216827,431.607758 371.816742,430.199158 
	C373.076477,429.813416 374.360352,429.506439 375.999146,429.003052 
z"/>
<path fill="#1D66A4" opacity="1.000000" stroke="none" 
	d="
M420.001434,540.973389 
	C420.012604,552.674194 420.081390,552.889038 409.251373,556.356140 
	C397.661407,560.066528 385.940979,563.377136 374.214050,566.633911 
	C373.422607,566.853760 371.173706,565.169250 371.160126,564.344849 
	C370.957642,552.047302 370.881561,539.741943 371.194397,527.449097 
	C371.231995,525.971130 373.464172,523.746216 375.103027,523.240234 
	C386.932190,519.588074 398.874329,516.302917 410.771149,512.868408 
	C413.274475,512.145691 415.738312,511.286224 419.049500,510.223663 
	C421.026520,514.991821 419.735901,520.116455 419.950836,525.022034 
	C420.176208,530.165222 420.001221,535.326050 420.001434,540.973389 
z"/>
<path fill="#1D66A4" opacity="1.000000" stroke="none" 
	d="
M194.004852,610.897644 
	C193.992310,620.187012 193.935089,619.953369 181.375076,623.029297 
	C172.282440,625.255981 163.373322,628.228271 154.368958,630.821533 
	C151.560181,631.630493 148.707611,632.287476 144.999268,633.238586 
	C144.999268,630.948547 144.999207,629.359680 144.999283,627.770752 
	C144.999741,616.949280 145.133530,606.125244 144.929077,595.307617 
	C144.856613,591.474121 145.596359,589.478333 149.879471,588.383545 
	C162.703964,585.105530 175.347122,581.122131 188.091751,577.522644 
	C189.749268,577.054504 191.586609,577.222961 194.005478,577.048645 
	C194.005478,588.539368 194.005478,599.476990 194.004852,610.897644 
z"/>
<path fill="#1D66A4" opacity="1.000000" stroke="none" 
	d="
M179.523697,524.678467 
	C168.433945,527.756836 157.715851,530.681885 146.002441,533.878601 
	C146.002441,528.211182 146.002945,523.942444 146.002319,519.673706 
	C146.001144,511.517151 145.838959,503.354950 146.127808,495.208679 
	C146.188400,493.500244 147.567215,490.763428 148.915604,490.340637 
	C163.869751,485.651367 178.937653,481.324829 195.003967,476.597473 
	C195.003967,479.269257 195.003983,480.995911 195.003967,482.722565 
	C195.003845,493.708923 194.912903,504.696503 195.059708,515.680908 
	C195.102936,518.914917 194.067932,520.452576 190.778473,521.123718 
	C187.073654,521.879700 183.516647,523.359985 179.523697,524.678467 
z"/>
<path fill="#1D66A4" opacity="1.000000" stroke="none" 
	d="
M400.488708,660.687378 
	C392.133057,663.028748 384.164185,665.241272 376.185944,667.419373 
	C374.449158,667.893494 372.678680,668.244324 370.000671,668.866272 
	C370.000671,666.432129 370.000549,664.383484 370.000671,662.334900 
	C370.001251,652.020203 370.160309,641.701965 369.924561,631.392639 
	C369.830109,627.262878 370.833618,625.619263 375.317169,624.518616 
	C387.849762,621.442200 400.127228,617.333191 412.533722,613.729187 
	C414.350555,613.201416 416.321777,613.205017 419.003937,612.863037 
	C419.003937,618.618530 419.004395,623.720520 419.003845,628.822510 
	C419.003052,636.308960 418.872742,643.798706 419.059296,651.280457 
	C419.141907,654.593567 417.657990,656.149963 414.695709,656.900818 
	C410.076660,658.071777 405.478912,659.326782 400.488708,660.687378 
z"/>
<path fill="#1D66A4" opacity="1.000000" stroke="none" 
	d="
M253.187378,555.368164 
	C261.259369,552.449097 269.031281,549.725952 276.870422,547.212524 
	C283.253540,545.165833 289.727600,543.404541 296.141205,541.450684 
	C300.123688,540.237488 301.931946,541.299622 301.962585,545.369202 
	C302.046539,556.508179 301.927856,567.648804 302.029755,578.787476 
	C302.061035,582.207703 300.470764,583.861755 297.340851,584.778992 
	C288.662018,587.322632 280.061615,590.135864 271.370758,592.635742 
	C265.583038,594.300537 259.693298,595.610779 252.990845,597.295532 
	C252.990845,591.616028 253.100479,586.678955 252.965881,581.748474 
	C252.749100,573.808289 252.345993,565.873169 252.102493,557.933411 
	C252.079468,557.182922 252.631378,556.414734 253.187378,555.368164 
z"/>
<path fill="#1D66A4" opacity="1.000000" stroke="none" 
	d="
M409.006134,329.055786 
	C409.005920,339.046600 408.952240,348.545746 409.038025,358.043579 
	C409.063721,360.884094 408.416840,362.365997 405.201355,363.246063 
	C392.271851,366.784576 379.467682,370.782196 366.623474,374.631012 
	C361.955566,376.029785 360.039093,374.717316 360.018463,369.858673 
	C359.974609,359.527008 360.047455,349.194794 359.985107,338.863312 
	C359.961151,334.888306 361.258850,332.684204 365.571014,331.509796 
	C376.585846,328.509918 387.409698,324.809906 398.317963,321.415588 
	C399.099426,321.172424 399.942230,321.109680 400.762177,321.009186 
	C409.005280,319.999054 409.005615,320.001770 409.006134,329.055786 
z"/>
<path fill="#1D66A4" opacity="1.000000" stroke="none" 
	d="
M235.918869,467.888245 
	C246.557266,464.907043 256.807922,462.026825 268.007599,458.879913 
	C268.007599,462.576202 268.007812,465.637146 268.007599,468.698059 
	C268.006927,477.843140 267.775665,486.996643 268.109650,496.129486 
	C268.260071,500.242676 266.590302,502.361786 263.023621,503.452484 
	C257.326630,505.194550 251.611664,506.879639 245.887131,508.529175 
	C239.073868,510.492462 232.235672,512.369141 225.421112,514.327942 
	C220.330505,515.791260 219.034714,514.934631 219.015259,509.743378 
	C218.974716,498.935730 219.096695,488.126526 218.947372,477.320770 
	C218.902771,474.093536 219.932571,472.591888 223.209045,471.874756 
	C227.399155,470.957642 231.431030,469.317627 235.918869,467.888245 
z"/>
<path fill="#0C2A4C" opacity="1.000000" stroke="none" 
	d="
M852.224487,338.882690 
	C860.278870,341.096375 868.009338,343.015564 875.532471,345.550446 
	C877.078979,346.071533 879.102051,349.167816 878.784973,350.611267 
	C875.702820,364.641693 872.169006,378.572876 868.679810,392.877289 
	C852.394226,388.836212 836.500732,384.934784 820.654846,380.848480 
	C819.765015,380.618958 818.495972,378.671875 818.702759,377.851868 
	C822.349060,363.393341 826.194092,348.984955 830.018433,334.571594 
	C830.138672,334.118530 830.497375,333.728729 831.038757,332.812012 
	C837.914246,334.794525 844.870667,336.800354 852.224487,338.882690 
z"/>
<path fill="#0C2A4C" opacity="1.000000" stroke="none" 
	d="
M860.883728,435.817444 
	C858.577820,445.544464 856.192627,454.831268 854.202087,464.201935 
	C853.432190,467.826324 851.922119,468.270660 848.626404,467.414093 
	C835.845398,464.092255 823.013550,460.960266 810.168091,457.893982 
	C803.023010,456.188446 802.798401,455.949951 804.681946,448.453278 
	C807.782410,436.113708 810.792175,423.750366 814.055969,411.454346 
	C814.358948,410.312744 816.494141,408.580750 817.301514,408.809143 
	C832.562805,413.126740 847.752747,417.696411 862.951416,422.234253 
	C863.233093,422.318359 863.439758,422.654144 863.899231,423.069305 
	C862.941589,427.093018 861.951782,431.251892 860.883728,435.817444 
z"/>
<path fill="#0D2A4C" opacity="1.000000" stroke="none" 
	d="
M792.020752,502.083801 
	C793.515198,496.268280 794.984375,490.866150 796.605835,484.903900 
	C807.313782,487.961914 817.768250,490.947723 828.222900,493.933105 
	C832.678284,495.205353 837.099121,496.622833 841.601929,497.696411 
	C844.542786,498.397614 845.540649,500.210938 844.933228,502.790680 
	C841.716858,516.451843 838.365112,530.081177 835.037231,543.715881 
	C834.968689,543.996826 834.622131,544.209839 834.046997,544.858826 
	C818.610596,540.952576 802.947388,536.955261 787.262207,533.046265 
	C783.838684,532.193115 785.026367,529.974060 785.527100,527.972229 
	C787.653137,519.473022 789.834412,510.987640 792.020752,502.083801 
z"/>
<path fill="#0C2A4C" opacity="1.000000" stroke="none" 
	d="
M664.837158,337.131165 
	C657.078918,336.739929 654.249939,332.345520 652.569763,325.600616 
	C649.574890,313.577454 645.654968,301.784698 641.759277,288.675201 
	C647.321106,290.063171 652.034363,291.088013 656.657532,292.424530 
	C666.340942,295.223785 675.946533,298.294983 685.649109,301.023376 
	C688.945801,301.950439 691.271240,303.449158 692.401428,306.803009 
	C696.626770,319.342255 700.946228,331.849823 705.218506,344.373322 
	C705.424683,344.977722 705.518005,345.620636 705.945435,347.451599 
	C691.918701,343.922943 678.579529,340.567230 664.837158,337.131165 
z"/>
<path fill="#0C2A4C" opacity="1.000000" stroke="none" 
	d="
M742.439209,560.666321 
	C751.399597,561.057556 754.659058,566.296570 756.696106,573.988037 
	C759.279663,583.742554 763.117004,593.164368 766.388733,602.738159 
	C766.904724,604.248108 767.289795,605.802856 768.002747,608.257141 
	C761.342102,606.619873 755.473877,605.194214 749.614441,603.733154 
	C740.614502,601.489136 731.648499,599.099304 722.610474,597.022156 
	C718.978027,596.187317 717.020691,594.421143 715.977661,590.745605 
	C712.675537,579.109741 708.984009,567.584839 705.553772,555.984314 
	C705.063721,554.327026 705.184937,552.489014 704.903748,549.437256 
	C717.877625,553.304077 729.971191,556.908508 742.439209,560.666321 
z"/>
<path fill="#0C2A4D" opacity="1.000000" stroke="none" 
	d="
M670.111572,397.770233 
	C667.289124,387.876526 664.541260,378.378174 661.413391,367.566406 
	C665.281006,368.322113 667.992310,368.639709 670.576233,369.393890 
	C681.223694,372.501495 691.768555,375.981995 702.482910,378.829712 
	C707.699890,380.216278 710.986938,382.388275 712.668518,387.973083 
	C716.339661,400.165253 720.821106,412.113495 725.275391,425.043610 
	C722.510925,424.768463 720.571411,424.803558 718.749695,424.357635 
	C705.403015,421.090973 692.112915,417.585419 678.726135,414.496490 
	C675.423950,413.734528 674.088318,412.257324 673.441467,409.097748 
	C672.681763,405.387115 671.298828,401.804016 670.111572,397.770233 
z"/>
<path fill="#0C2A4D" opacity="1.000000" stroke="none" 
	d="
M707.548889,507.342346 
	C699.023071,506.444794 693.697937,503.507843 691.884094,494.182312 
	C689.592957,482.403076 685.288147,471.015472 681.519775,458.341675 
	C686.465759,459.635925 690.631409,460.617706 694.732422,461.820251 
	C705.358398,464.936127 715.993896,468.031128 726.530273,471.430023 
	C728.476196,472.057770 730.888245,473.736023 731.534363,475.498047 
	C736.154297,488.097198 740.382080,500.840363 744.693848,513.551575 
	C744.947571,514.299683 744.848022,515.167542 744.994202,516.997803 
	C732.345215,513.752747 720.139404,510.621399 707.548889,507.342346 
z"/>
<path fill="#0C2A4C" opacity="1.000000" stroke="none" 
	d="
M583.440918,354.661316 
	C586.863403,355.592285 590.059875,356.037079 592.888428,357.303589 
	C594.277710,357.925659 595.836792,360.053894 595.866211,361.529572 
	C596.105347,373.500031 595.948425,385.477722 596.032349,397.452332 
	C596.056274,400.860657 594.712708,401.343384 591.704712,400.433075 
	C581.423096,397.321686 571.081543,394.409210 560.770081,391.395935 
	C557.130737,390.332367 553.434937,389.390747 549.926575,387.988892 
	C548.702698,387.499817 547.147583,385.806122 547.130310,384.641968 
	C546.933594,371.368713 547.005310,358.091431 547.005310,343.890198 
	C559.451050,347.557007 571.257141,351.035400 583.440918,354.661316 
z"/>
<path fill="#0C2A4C" opacity="1.000000" stroke="none" 
	d="
M592.011292,308.989258 
	C592.010864,313.781250 592.010864,318.075989 592.010864,323.142426 
	C581.965027,320.161530 572.657898,317.360443 563.325684,314.645233 
	C557.606873,312.981293 551.806702,311.582336 546.143127,309.754425 
	C544.885559,309.348541 543.170105,307.652435 543.152466,306.527039 
	C542.943970,293.240692 543.018372,279.949921 543.018372,265.598846 
	C549.083008,267.234222 554.422119,268.596527 559.715332,270.118530 
	C568.790649,272.728119 577.806030,275.551880 586.911194,278.049927 
	C590.675903,279.082764 592.327881,280.805389 592.124817,285.002625 
	C591.746765,292.815979 592.013428,300.660461 592.011292,308.989258 
z"/>
<path fill="#0C2A4C" opacity="1.000000" stroke="none" 
	d="
M586.586060,580.347168 
	C573.644592,576.564880 561.065491,572.981140 548.546082,569.199707 
	C547.493042,568.881531 546.120972,567.241272 546.112305,566.205139 
	C546.003967,553.223511 546.116699,540.239929 546.201538,527.257019 
	C546.203308,526.986267 546.548279,526.717712 547.225525,525.730042 
	C562.790039,530.219116 578.620789,534.784973 594.693848,539.420715 
	C594.693848,553.832092 594.693848,568.072144 594.693848,582.680542 
	C591.952271,581.905029 589.458191,581.199463 586.586060,580.347168 
z"/>
<path fill="#0C2A4C" opacity="1.000000" stroke="none" 
	d="
M544.990234,453.006714 
	C544.990234,447.889404 544.990234,443.270721 544.990234,438.079224 
	C554.187744,440.716309 562.739868,443.148956 571.279968,445.623352 
	C577.629700,447.463074 583.952942,449.395142 590.310364,451.207581 
	C592.807678,451.919495 594.139526,453.002716 594.088074,456.019592 
	C593.889282,467.657959 593.925049,479.302734 594.058716,490.942993 
	C594.103333,494.830597 592.810120,495.368835 589.250366,494.277954 
	C575.656372,490.111969 562.004944,486.121796 548.298218,482.344818 
	C545.616150,481.605804 544.907166,480.507141 544.945557,477.952362 
	C545.067932,469.804962 544.990479,461.654541 544.990234,453.006714 
z"/>
<path fill="#1D66A4" opacity="1.000000" stroke="none" 
	d="
M489.469299,602.327148 
	C497.951202,600.068542 506.051971,597.954956 514.997559,595.620972 
	C514.997559,602.587219 514.997864,608.695618 514.997498,614.803955 
	C514.997131,621.627869 515.202576,628.462708 514.842896,635.267639 
	C514.758423,636.866577 513.052368,639.322205 511.603333,639.758179 
	C499.578033,643.375977 487.464752,646.713379 475.324310,649.932800 
	C465.037903,652.660522 465.006409,652.541077 465.007233,641.926331 
	C465.007965,632.772278 465.094269,623.617065 464.962280,614.464905 
	C464.915619,611.228577 465.522278,609.475220 469.267883,608.610657 
	C475.988861,607.059326 482.493225,604.569763 489.469299,602.327148 
z"/>
</svg>