<svg xmlns="http://www.w3.org/2000/svg" viewBox="0 0 240 160" role="img" aria-label="MJV Building Group">
  <g transform="translate(96,6)">
    <rect x="12" y="28" width="11" height="25" fill="#1976d2"/>
    <rect x="26" y="16" width="13" height="37" fill="#0d47a1"/>
    <rect x="42" y="24" width="11" height="29" fill="#1976d2"/>
    <g fill="#dbeafe">
      <rect x="14.5" y="31" width="2.5" height="2.5"/>
      <rect x="18.5" y="31" width="2.5" height="2.5"/>
      <rect x="14.5" y="36" width="2.5" height="2.5"/>
      <rect x="18.5" y="36" width="2.5" height="2.5"/>
      <rect x="14.5" y="41" width="2.5" height="2.5"/>
      <rect x="18.5" y="41" width="2.5" height="2.5"/>
      <rect x="29" y="20" width="2.5" height="2.5"/>
      <rect x="33.5" y="20" width="2.5" height="2.5"/>
      <rect x="29" y="25" width="2.5" height="2.5"/>
      <rect x="33.5" y="25" width="2.5" height="2.5"/>
      <rect x="29" y="30" width="2.5" height="2.5"/>
      <rect x="33.5" y="30" width="2.5" height="2.5"/>
      <rect x="29" y="35" width="2.5" height="2.5"/>
      <rect x="33.5" y="35" width="2.5" height="2.5"/>
      <rect x="44.5" y="28" width="2.5" height="2.5"/>
      <rect x="49" y="28" width="2.5" height="2.5"/>
      <rect x="44.5" y="33" width="2.5" height="2.5"/>
      <rect x="49" y="33" width="2.5" height="2.5"/>
    </g>
    <rect x="8" y="53" width="48" height="3" fill="#0d2543"/>
  </g>
  <text x="120" y="108" text-anchor="middle" font-family="Arial, Helvetica, sans-serif" font-size="40" font-weight="800" letter-spacing="2" fill="#1976d2">MJV</text>
  <text x="120" y="140" text-anchor="middle" font-family="Arial, Helvetica, sans-serif" font-size="18" font-weight="700" letter-spacing="6" fill="#0d2543">BUILDING GROUP</text>
</svg>
